<svg width="123" height="154" viewBox="0 0 123 154" fill="none" xmlns="http://www.w3.org/2000/svg">
    <path fill-rule="evenodd" clip-rule="evenodd"
          d="M61.5 0C8.76436 0 -19.4203 61.8742 15.3064 101.41L61.5 154L107.694 101.41C142.42 61.8742 114.236 0 61.5 0ZM25.0618 92.9064C-2.33106 61.7203 19.9014 12.913 61.5 12.913C103.099 12.913 125.331 61.7203 97.9382 92.9065L83.5623 109.273L64.3338 85.2822C78.3994 83.7573 89.3464 71.887 89.3464 57.4696C89.3464 42.0177 76.7719 29.4914 61.2605 29.4914C45.8618 29.4914 33.3576 41.8363 33.1767 57.1333H33.1663V102.133L25.0618 92.9064ZM46.129 83.2645V116.891L61.5 134.39L74.889 119.147L46.129 83.2645ZM76.3837 57.4696C76.3837 65.7899 69.6128 72.5348 61.2605 72.5348C52.9083 72.5348 46.1374 65.7899 46.1374 57.4696C46.1374 49.1493 52.9083 42.4044 61.2605 42.4044C69.6128 42.4044 76.3837 49.1493 76.3837 57.4696Z"
          fill="#0F172A"/>
</svg>
