<svg xmlns="http://www.w3.org/2000/svg" viewBox="0 0 1000 1000">
    <defs>
        <style>.cls-1{fill:#020617;}.cls-2{fill:#fff;}</style>
    </defs>
    <g id="Layer_2" data-name="Layer 2">
        <g id="Layer_1-2" data-name="Layer 1">
            <rect class="cls-1" width="1000" height="1000" rx="200"/>
            <path class="cls-2"
                  d="M409.69,393.29A68,68,0,0,0,371.9,381.9H337.74v44.17c0,15.21-18.4,22.83-29.16,12.07L196.1,325.66a17.09,17.09,0,0,1,0-24.16L308.58,189c10.76-10.76,29.16-3.14,29.16,12.08v44.16H371.9c40.35,0,76.81,10.45,107.4,28.65C443.3,303.52,418.56,345.41,409.69,393.29ZM803.9,301.5,691.42,189c-10.76-10.76-29.16-3.14-29.16,12.08v44.16H645.18c-119.56,0-205,91.76-205,205V826a17.08,17.08,0,0,0,17.08,17.08H559.78A17.08,17.08,0,0,0,576.86,826V450.22a68.32,68.32,0,0,1,68.32-68.32h17.08v44.17c0,15.21,18.4,22.83,29.16,12.07L803.9,325.66A17.09,17.09,0,0,0,803.9,301.5Z"/>
        </g>
    </g>
</svg>