<svg width="199" height="24" viewBox="0 0 199 24" fill="none" xmlns="http://www.w3.org/2000/svg">
    <path d="M11.3138 0.352941C14.1453 0.352941 16.3422 1 17.9044 2.29412C19.4666 3.58824 20.2477 5.32941 20.2477 7.51765C20.2477 9.09412 19.8938 10.4353 19.1859 11.5412C18.5024 12.6235 17.4894 13.4471 16.1469 14.0118C15.9452 14.0946 15.7368 14.1711 15.5219 14.2413C14.3328 14.6294 12.9423 14.8235 11.3504 14.8235L10.7646 15.1412H9.70546H6.18782V23.6471H0V0.352941H11.3138ZM10.4351 10.8353C11.4847 10.8353 12.3268 10.6235 12.9615 10.2C13.5961 9.77647 13.9134 9 13.9134 7.87059C13.9134 6.71765 13.5839 5.94118 12.9249 5.54118C12.2658 5.14118 11.4359 4.94118 10.4351 4.94118H6.18782V10.8353H10.4351ZM14.1331 12.1059L15.5219 14.2413L21.6391 23.6471H14.6823L9.70546 15.1412L8.71421 13.4471L14.1331 12.1059Z" fill="#0F172A"/>
    <path d="M35.9149 0C38.3315 0 40.4063 0.482353 42.1394 1.44706C43.8724 2.38823 45.2028 3.75294 46.1303 5.54118C47.0579 7.32941 47.5217 9.48235 47.5217 12C47.5217 14.4941 47.0579 16.6471 46.1303 18.4588C45.2028 20.2471 43.8724 21.6235 42.1394 22.5882C40.4063 23.5294 38.3315 24 35.9149 24C33.5228 24 31.448 23.5294 29.6905 22.5882C27.9574 21.6235 26.6149 20.2471 25.6629 18.4588C24.7354 16.6471 24.2716 14.4941 24.2716 12C24.2716 9.48235 24.7354 7.32941 25.6629 5.54118C26.6149 3.75294 27.9574 2.38823 29.6905 1.44706C31.448 0.482353 33.5228 0 35.9149 0ZM35.9149 4.76471C34.7921 4.76471 33.8401 5.03529 33.059 5.57647C32.3023 6.11765 31.7165 6.92941 31.3015 8.01176C30.911 9.07059 30.7157 10.4 30.7157 12C30.7157 13.5765 30.911 14.9059 31.3015 15.9882C31.7165 17.0706 32.3023 17.8824 33.059 18.4235C33.8401 18.9647 34.7921 19.2353 35.9149 19.2353C37.0378 19.2353 37.9775 18.9647 38.7342 18.4235C39.4909 17.8824 40.0646 17.0706 40.4551 15.9882C40.8701 14.9059 41.0776 13.5765 41.0776 12C41.0776 10.4 40.8701 9.07059 40.4551 8.01176C40.0646 6.92941 39.4909 6.11765 38.7342 5.57647C37.9775 5.03529 37.0378 4.76471 35.9149 4.76471Z" fill="#0F172A"/>
    <path d="M73.2472 0.352941V14.1529C73.2472 17.4235 72.3563 19.8824 70.5744 21.5294C68.7925 23.1765 66.1563 24 62.6657 24C59.1995 24 56.5633 23.1765 54.757 21.5294C52.9751 19.8824 52.0842 17.4235 52.0842 14.1529V0.352941H58.4184V14.2588C58.4184 15.9294 58.7724 17.1765 59.4803 18C60.1881 18.8235 61.2499 19.2353 62.6657 19.2353C64.1059 19.2353 65.1799 18.8235 65.8878 18C66.5956 17.1765 66.9496 15.9294 66.9496 14.2588V0.352941H73.2472Z" fill="#0F172A"/>
    <path d="M98.7397 0.352941V5.04706H91.0873V23.6471H84.7896V5.04706H77.1006V0.352941H98.7397Z" fill="#0F172A"/>
    <path d="M103.046 23.6471V0.352941H121.427V5.04706H109.344V9.77647H118.974V14.1882H109.344V18.9529H121.903V23.6471H103.046Z" fill="#0F172A"/>
    <path d="M137.762 0.352941C140.593 0.352941 142.79 1 144.353 2.29412C145.915 3.58824 146.696 5.32941 146.696 7.51765C146.696 9.09412 146.342 10.4353 145.634 11.5412C144.951 12.6235 143.938 13.4471 142.595 14.0118C141.277 14.5529 139.678 14.8235 137.799 14.8235L137.213 15.1412H132.636V23.6471H126.448V0.352941H137.762ZM136.883 10.8353C137.933 10.8353 138.775 10.6235 139.41 10.2C140.044 9.77647 140.362 9 140.362 7.87059C140.362 6.71765 140.032 5.94118 139.373 5.54118C138.714 5.14118 137.884 4.94118 136.883 4.94118H132.636V10.8353H136.883ZM140.581 12.1059L148.087 23.6471H141.13L135.162 13.4471L140.581 12.1059Z" fill="#0F172A"/>
    <path d="M163.273 0.352941C166.105 0.352941 168.302 1 169.864 2.29412C171.426 3.58824 172.207 5.32941 172.207 7.51765C172.207 9.09412 171.853 10.4353 171.145 11.5412C170.462 12.6235 169.449 13.4471 168.106 14.0118C166.788 14.5529 165.189 14.8235 163.31 14.8235L162.724 15.1412H158.147V23.6471H151.959V0.352941H163.273ZM162.395 10.8353C163.444 10.8353 164.286 10.6235 164.921 10.2C165.556 9.77647 165.873 9 165.873 7.87059C165.873 6.71765 165.543 5.94118 164.884 5.54118C164.225 5.14118 163.395 4.94118 162.395 4.94118H158.147V10.8353H162.395ZM166.093 12.1059L173.599 23.6471H166.642L160.674 13.4471L166.093 12.1059Z" fill="#0F172A"/>
    <path d="M199 23.6471H192.519L190.908 18.3882H182.926L181.279 23.6471H174.944L183.219 0.352941H190.762L199 23.6471ZM184.098 14.2588H189.737L186.917 4.83529L184.098 14.2588Z" fill="#0F172A"/>
</svg>
