<svg width="56" height="17" viewBox="0 0 56 17" fill="none" xmlns="http://www.w3.org/2000/svg">
  <g clip-path="url(#clip0_5802_11721)">
    <path d="M52.3986 14.6493C52.3986 13.4961 53.242 12.718 54.1984 12.718C55.1557 12.718 55.9983 13.4962 55.9983 14.6493C55.9983 15.8026 55.1557 16.5815 54.1984 16.5815C53.242 16.5816 52.3986 15.8026 52.3986 14.6493ZM54.2076 14.4312C54.5141 14.4312 54.6006 14.2537 54.6006 14.0985C54.6006 13.9119 54.5141 13.7667 54.2076 13.7667H53.8169V14.4313L54.2076 14.4312ZM53.8169 14.7316V15.7918H53.5004V13.4547H54.2848C54.7435 13.4547 54.9554 13.6729 54.9554 14.0984C54.9554 14.359 54.7917 14.5672 54.5822 14.5971V14.6071C54.7627 14.6385 54.8299 14.8161 54.8689 15.138C54.898 15.3446 54.9354 15.7089 55.0035 15.7918H54.6296C54.5432 15.5736 54.5532 15.2625 54.4859 15.0028C54.4292 14.8053 54.3328 14.7316 54.1227 14.7316H53.8169ZM55.6534 14.6493C55.6534 13.7144 55.0417 13.029 54.1984 13.029C53.3558 13.029 52.7435 13.7143 52.7435 14.6493C52.7435 15.5844 53.3559 16.2688 54.1984 16.2688C55.0417 16.2688 55.6534 15.5845 55.6534 14.6493Z" fill="#CBD5E1" />
    <path d="M46.1632 16.2452L44.0882 13.7198L42.0322 16.2452H37.7072L41.9352 11.089L37.7072 5.93274H42.1676L44.2626 8.43744L46.2795 5.93274H50.5856L46.3775 11.0682L50.643 16.2452H46.1632Z" fill="#CBD5E1" />
    <path d="M29.3986 16.2451V0.000732422H37.708V3.62131H32.9187V5.9327H37.708V9.41723H32.9187V12.6147H37.708V16.2452L29.3986 16.2451Z" fill="#CBD5E1" />
    <path d="M23.7654 13.7719C22.4732 13.7719 21.6697 12.4652 21.6697 11.1012C21.6697 9.64355 22.3692 8.24144 23.7654 8.24144C25.2135 8.24144 25.7907 9.64355 25.7907 11.1012C25.7907 12.4843 25.1791 13.7719 23.7654 13.7719ZM11.3097 9.4643C11.5307 8.43389 12.2685 7.75855 13.1891 7.75855C14.2029 7.75855 14.9024 8.41315 15.0867 9.4643H11.3097ZM25.8924 -0.000287964V6.64843H25.8542C25.078 5.68025 24.1086 5.34344 22.9839 5.34344C20.6787 5.34344 18.9431 7.04421 18.3338 9.29174C17.6388 6.81524 15.8467 5.29698 13.189 5.29698C11.0306 5.29698 9.3271 6.34813 8.43714 8.06134V5.93246H3.97665V3.62106H8.84471V-0.000287964H0.00012207V16.2449H3.97665V9.41613H7.94022C7.82172 9.91805 7.75821 10.4556 7.75821 11.0215C7.75821 14.4106 10.1444 16.7883 13.189 16.7883C15.7495 16.7883 17.437 15.4841 18.3284 13.1063H14.9215C14.4597 13.8206 14.1102 14.0331 13.189 14.0331C12.1201 14.0331 11.1988 13.0217 11.1988 11.8212H18.1381C18.4393 14.5133 20.3714 16.8347 23.0222 16.8347C24.166 16.8347 25.2142 16.2242 25.8542 15.1929H25.8924V16.2448H29.398V-0.000366211H25.8924V-0.000287964Z" fill="#94A3B8" />
  </g>
  <defs>
    <clipPath id="clip0_5802_11721">
      <rect width="56" height="17" fill="white" />
    </clipPath>
  </defs>
</svg>