<svg width="79" height="15" viewBox="0 0 79 15" fill="none" xmlns="http://www.w3.org/2000/svg">
  <g clip-path="url(#clip0_5802_11734)">
    <path d="M19.7074 14.3372L22.6436 0.622556H3.41668L0.480469 14.3372H19.7074Z" fill="white" />
    <path d="M22.0097 1.12753L3.82448 1.12836L3.81353 1.18859C3.81353 1.18859 14.5045 3.3678 14.7163 3.40528C17.1726 3.8357 17.0966 4.30616 17.0966 4.30616C18.8179 4.2976 19.0293 4.36672 19.3302 4.61566C20.2351 5.36622 18.764 7.57764 18.764 7.57764C18.5537 7.73182 2.65039 13.8288 2.65039 13.8288H19.2886L22.0093 1.12775L22.0097 1.12753ZM25.4963 1.12753C25.4963 1.12753 25.219 2.4229 24.8054 4.35551C24.5578 5.47067 25.3154 5.97578 26.5773 5.97578C27.844 5.97578 28.8067 5.47062 29.0477 4.35551C29.7504 1.12736 29.0403 4.35568 29.7505 1.12753H28.6913C28.6913 1.12753 28.1563 3.61091 28.0636 4.03597C27.904 4.78067 27.5083 5.22543 26.7323 5.22543C25.9218 5.21901 25.7557 4.77368 25.9218 4.03597C25.9029 4.11039 26.552 1.12753 26.552 1.12753H25.4963ZM30.765 1.12753L29.7471 5.88957H30.6849L31.4255 2.3554H31.4466L32.6313 5.88957H33.9625L34.9787 1.12753H34.0426L33.2868 4.70101H33.2741L32.1358 1.12753H30.765ZM35.994 1.12753L34.9787 5.88957H36.0353L37.0522 1.12753H35.994ZM37.7609 1.12753L37.5932 1.88537H39.0854L38.2285 5.88961H39.286L40.142 1.88537H41.6334L41.7943 1.12753H37.7609ZM42.5045 1.12753L41.4808 5.88957H44.9573L45.1191 5.13173H42.7051L42.9798 3.83014H45.0862L45.2387 3.12665H43.1331L43.3993 1.88532H45.8159L45.9751 1.12748L42.5045 1.12753ZM46.7461 1.12753L45.7308 5.88957H47.897C49.2354 5.88957 50.5196 5.01348 50.8081 3.2998C51.0141 2.08456 50.5257 1.12744 49.0741 1.12744L46.7461 1.12753ZM54.6976 1.12753C53.4547 1.12753 52.8367 1.56566 52.7445 2.2509C52.5909 3.39176 54.6241 4.06972 54.471 4.75283C54.3766 5.1522 53.8822 5.13176 53.481 5.13176H52.1775L52.0157 5.8896H53.6352C54.9601 5.8896 55.5351 5.41772 55.6413 4.76622C55.8344 3.59753 53.7689 2.994 53.9301 2.23753C53.9829 2.00465 54.2428 1.88537 54.8181 1.88537H55.9489L56.1149 1.12753H54.6976ZM56.6583 1.12753L56.4923 1.88537H57.9836L57.1276 5.88961H58.1842L59.0402 1.88537H60.5324L60.6934 1.12753H56.6583ZM61.8131 1.12753L59.0646 5.88957H60.122L62.2285 2.07184L62.6506 5.13168H61.1373L60.7236 5.88952H63.826L63.0778 1.12748L61.8131 1.12753ZM64.2448 1.12753L64.0779 1.88537H65.5693L64.7132 5.88961H65.7698L66.6259 1.88537H68.1164L68.2782 1.12753H64.2448ZM68.9832 1.12753L67.9587 5.88957H71.4368L71.5986 5.13173H69.1821L69.4568 3.83014H71.5641L71.7174 3.12665H69.611L69.8789 1.88532H72.2929L72.4538 1.12748L68.9832 1.12753ZM74.7795 1.12753C73.5349 1.12753 72.9194 1.56566 72.8256 2.2509C72.6719 3.39176 74.7052 4.06972 74.5521 4.75283C74.4577 5.1522 73.9624 5.13176 73.5612 5.13176H72.2569L72.0968 5.8896H73.7145C75.0395 5.8896 75.6154 5.41772 75.7233 4.76622C75.9158 3.59753 73.8498 2.994 74.0094 2.23753C74.0634 2.00465 74.3247 1.88537 74.9 1.88537H76.0282L76.1976 1.12753H74.7795ZM47.6492 1.88537H48.7277C49.603 1.88537 49.9159 2.53001 49.7826 3.28648C49.5961 4.35611 48.9068 5.13177 47.7108 5.13177H46.9549L47.6492 1.88537ZM12.56 4.06445C12.0779 4.0607 11.7386 4.06757 11.6998 4.06529H3.1999H3.19821L1.10938 13.8322C1.10938 13.8322 7.50747 10.715 8.29003 10.3156C9.89319 9.49814 12.1103 8.41781 14.1592 7.72507C14.5496 7.5939 16.222 7.08188 17.1959 6.90949C17.5734 6.84257 17.7341 6.77887 17.7292 6.70874C17.7147 6.50852 17.3348 6.49533 16.692 6.52638C14.7308 6.61793 10.9725 8.10391 9.89056 8.67031L8.66966 4.91284H16.4728C16.7355 4.1819 14.0065 4.07572 12.56 4.06445ZM16.6971 4.96954C16.6404 4.96954 16.5918 5.00751 16.526 5.09584C16.4662 5.1724 16.4176 5.22399 16.2623 5.30162C16.0213 5.4194 15.3911 5.48528 15.0962 5.50991C14.8131 5.53346 14.7362 5.56183 14.7313 5.67051C14.7286 5.76741 14.7735 5.82275 15.1796 5.82275C16.1141 5.82275 17.7961 5.4728 18.303 5.63287C18.5705 5.71799 18.3557 6.19109 18.1362 6.81316C18.051 7.05354 18.2178 7.03657 18.3148 6.93111C18.4119 6.82511 18.8479 6.03236 18.8954 5.62871C18.9628 5.05533 18.4672 4.96955 17.784 4.96955L16.6971 4.96954ZM30.5221 8.98046C29.0376 8.98046 27.8007 9.75059 27.4383 11.4439C27.152 12.7984 27.9816 13.9132 29.4596 13.9132C30.9582 13.9132 32.162 13.1774 32.5367 11.4439C32.8436 10.0301 31.9937 8.98046 30.5221 8.98046ZM72.8623 8.98046C71.3902 8.98046 69.9735 9.73667 69.6116 11.4439C69.2444 13.1501 70.3338 13.9132 71.8065 13.9132C72.2137 13.9132 72.604 13.8675 72.9912 13.8087L73.2516 12.9897C72.8709 13.0834 72.4678 13.157 71.9658 13.157C71.0091 13.157 70.469 12.52 70.696 11.4439C70.9236 10.3679 71.739 9.73666 72.6946 9.73666C73.1842 9.73666 73.5177 9.80301 73.8186 9.88974L73.913 9.08672C73.5727 9.02729 73.2182 8.98046 72.8623 8.98046ZM35.1217 9.06578C33.8766 9.06578 33.2602 9.50447 33.167 10.1892C33.0133 11.3316 35.0463 12.0086 34.8942 12.6928C34.8004 13.0911 34.3046 13.0708 33.9034 13.0708H32.5991L32.4373 13.8279H34.0576C35.382 13.8279 35.957 13.3563 36.0638 12.7053C36.2579 11.5372 34.1915 10.9322 34.3516 10.1758C34.405 9.94292 34.6661 9.82364 35.2431 9.82364H36.3713L36.5398 9.0658L35.1217 9.06578ZM37.0816 9.06578L36.9147 9.82362H38.4061L37.55 13.8279H38.6066L39.4644 9.82362H40.9549L41.1141 9.06578H37.0816ZM52.5209 9.06578C51.2758 9.06578 50.6598 9.50447 50.567 10.1892C50.4122 11.3316 52.4455 12.0086 52.2935 12.6928C52.1996 13.0911 51.7038 13.0708 51.3026 13.0708H49.9983L49.8374 13.8279H51.4568C52.7807 13.8279 53.3562 13.3563 53.463 12.7053C53.6571 11.5372 51.5912 10.9322 51.7491 10.1758C51.8031 9.94292 52.0652 9.82364 52.6406 9.82364H53.7705L53.9373 9.0658L52.5209 9.06578ZM54.8532 9.06578L53.8295 13.8278H57.3084L57.4685 13.0708H55.0537L55.3284 11.7684H57.4357L57.5891 11.0641H55.4826L55.7489 9.82358H58.1645L58.3238 9.06574L54.8532 9.06578ZM59.0922 9.06578L58.0752 13.8278H59.1318L59.9879 9.8169H60.9375C61.5258 9.8169 61.5787 10.1417 61.5188 10.4409C61.4061 11.0052 60.9106 11.2306 60.3687 11.2306C60.2684 11.2306 60.1 11.2375 59.9668 11.2172L60.8372 13.8278H61.994L61.2045 11.7751C61.9072 11.6761 62.5102 11.1784 62.5754 10.2811C62.6369 9.48397 62.2623 9.06572 61.3267 9.06572L59.0922 9.06578ZM74.7667 9.06578L73.7455 13.8278H77.2236L77.3837 13.0708H74.9697L75.2436 11.7684H77.3509L77.5042 11.0641H75.3978L75.6657 9.82358H78.0797L78.2398 9.06574L74.7667 9.06578ZM23.8011 9.06664L22.7841 13.8278H23.8416L24.6976 9.82358H25.5596C25.9489 9.82358 26.2149 10.0155 26.1022 10.5338C26.0429 10.8191 25.7808 11.3109 25.0582 11.3109C24.8981 11.3109 24.7246 11.2908 24.5915 11.2774L24.6446 11.9692C24.7977 11.9825 24.979 12.0076 25.1467 12.0076C26.0963 12.0076 26.9321 11.4639 27.1268 10.5597C27.2535 9.96273 27.1327 9.06656 26.0963 9.06656L23.8011 9.06664ZM42.2434 9.06664L39.4966 13.8278H40.5515L42.6605 10.0093L43.0801 13.0708H41.5694L41.1548 13.8278H44.2572L43.5098 9.06664H42.2434ZM45.8252 9.06664L44.8091 13.8278H48.0538L48.2207 13.0708H46.0333L46.8894 9.06655L45.8252 9.06664ZM63.1369 9.06664L63.8589 13.8278H65.1085L67.8393 9.06664H66.7954L64.6889 12.886L64.1935 9.06664H63.1369ZM68.4763 9.06664L67.4601 13.8278H68.5167L69.5337 9.06664H68.4763ZM30.3552 9.7369C31.3318 9.7369 31.6602 10.48 31.4531 11.4441C31.2239 12.5202 30.5825 13.1573 29.6264 13.1573C28.6358 13.1573 28.3079 12.3671 28.515 11.4441C28.7625 10.3681 29.3992 9.7369 30.3552 9.7369Z" fill="#94A3B8" />
    <path d="M24.1765 7.30269L24.1016 7.65601H78.5442L78.6176 7.30269H24.1803H24.1765Z" fill="#CBD5E1" />
  </g>
  <defs>
    <clipPath id="clip0_5802_11734">
      <rect width="79" height="15" fill="white" />
    </clipPath>
  </defs>
</svg>