<svg width="36" height="36" viewBox="0 0 36 36" fill="none" xmlns="http://www.w3.org/2000/svg">
  <path d="M24.8843 6.10923C24.1671 6.41372 23.8155 7.28517 24.0971 8.05463C24.1097 8.08913 25.3998 11.6754 25.3998 18.0006C25.3998 24.3258 24.1111 27.9121 24.0985 27.9421C23.8113 28.7116 24.1727 30 25.3984 30C25.9545 30 26.4798 29.643 26.6997 29.0565C26.76 28.8931 28.2 24.9588 28.2 17.9991C28.2 11.0395 26.76 7.10668 26.6997 6.94169C26.4126 6.17373 25.6029 5.80175 24.8829 6.10623L24.8843 6.10923Z" fill="#0F172A" />
  <path d="M32.7012 6.94181C32.414 6.17375 31.6043 5.80172 30.8843 6.10625C30.1671 6.41077 29.8155 7.28233 30.0971 8.05189C30.1097 8.08639 31.3998 11.6732 31.3998 17.9991C31.3998 24.3251 30.1111 27.9118 30.0985 27.9418C29.8113 28.7114 30.1727 30 31.3984 30C31.9545 30 32.4798 29.643 32.6997 29.0564C32.76 28.8929 34.2 24.9581 34.2 17.9976C34.2 11.0371 32.76 7.10382 32.6997 6.93881L32.7012 6.94181Z" fill="#0F172A" />
  <path d="M23.0978 17.1063C22.048 15.6254 16.3179 8.10263 6.67964 5.45372C6.0569 5.28325 5.39533 5.52635 5.03692 6.06147C4.90551 6.25862 1.80078 10.9754 1.80078 18.0001C1.80078 25.0249 4.907 29.7446 5.03991 29.9417C5.32067 30.3598 5.79108 30.5999 6.28091 30.5999C6.40934 30.5999 6.53926 30.5836 6.66769 30.5495C16.8854 27.8324 22.8917 19.1993 23.1426 18.8332C23.501 18.3099 23.4846 17.6192 23.1038 17.1122L23.0993 17.1063H23.0978ZM6.99325 27.361C6.19728 25.8164 4.78753 22.4471 4.78753 18.0001C4.78753 13.605 6.20026 10.2105 6.99623 8.64665C13.8538 10.8998 18.3354 15.8344 20.0409 17.9942C18.422 20.0116 13.7672 25.1687 6.99325 27.361Z" fill="#0F172A" />
</svg>