<svg width="36" height="36" viewBox="0 0 36 36" fill="none" xmlns="http://www.w3.org/2000/svg">
<path d="M24.564 25.6702C25.0508 25.5479 25.4415 25.1883 25.6028 24.7168C25.7404 24.313 26.9584 19.3511 26.9584 14.3259C26.9584 9.30075 25.7404 4.3404 25.6028 3.93514C25.4415 3.46357 25.0493 3.104 24.564 2.98168C24.3731 2.93453 19.8032 1.7998 14.3796 1.7998C8.95589 1.7998 4.38757 2.93453 4.19519 2.98168C3.70832 3.104 3.31764 3.46357 3.15633 3.93514C3.0187 4.33893 1.80078 9.30075 1.80078 14.3259C1.80078 21.6722 4.27954 28.8916 5.28733 29.5577C5.59366 29.7611 5.68689 29.7773 6.07461 29.7773C7.63586 29.7773 10.1457 27.9426 11.5841 26.6473C12.4158 26.7298 13.7654 26.8521 14.3796 26.8521C19.8032 26.8521 24.3716 25.7174 24.564 25.6702ZM11.2156 23.6483C10.7746 23.5982 10.3292 23.7559 10.014 24.0713C8.81235 25.2679 7.66398 26.0209 6.88409 26.4439C6.12641 24.3911 4.7605 19.7711 4.7605 14.3245C4.7605 10.7243 5.44863 7.16394 5.7816 5.64607C7.30141 5.33218 10.6503 4.74566 14.3796 4.74566C18.1088 4.74566 21.4548 5.33218 22.9761 5.64607C23.3179 7.19489 23.9986 10.739 23.9986 14.3245C23.9986 17.9099 23.3105 21.485 22.9775 23.0029C21.4577 23.3168 18.1088 23.9033 14.3796 23.9033C13.8424 23.9033 12.1539 23.7471 11.2156 23.6469V23.6483ZM34.2008 20.2206C34.0336 27.3738 31.6791 33.3583 30.7305 33.9787C30.4982 34.1335 30.2407 34.2013 29.9418 34.1998C28.6247 34.1998 26.7097 32.8897 25.7301 32.147C22.8251 32.5449 19.9912 32.7453 17.2979 32.7453C16.6763 32.7453 15.3962 32.6524 13.4976 32.4682C12.6837 32.3887 12.0888 31.6695 12.1687 30.859C12.2486 30.0485 12.9678 29.462 13.7847 29.5356C16.1524 29.7641 17.0034 29.7994 17.2993 29.7994C20.0445 29.7994 22.9509 29.5784 25.9358 29.1422C26.3531 29.0862 26.7675 29.1967 27.0915 29.462C27.8818 30.1089 28.6173 30.576 29.1722 30.8781C29.8663 29.1584 31.1212 25.3607 31.2425 20.1867C31.2425 16.3154 30.9022 13.6024 30.6891 12.2938C30.402 12.2333 30.0542 12.1656 29.6547 12.0933C28.8511 11.9475 28.3169 11.1812 28.4619 10.3795C28.6069 9.58075 29.3779 9.05171 30.1815 9.1917C31.5208 9.43338 32.3317 9.64117 32.3317 9.64117C32.8674 9.77675 33.2848 10.2012 33.4091 10.7376C33.4401 10.8776 34.2008 14.2272 34.2008 20.2221V20.2206ZM14.3796 21.6943C13.5627 21.6943 12.8997 21.0341 12.8997 20.2206C12.8997 19.4071 13.5627 18.7469 14.3796 18.7469C15.1965 18.7469 15.8594 19.4071 15.8594 20.2206C15.8594 21.0341 15.1965 21.6943 14.3796 21.6943ZM12.8997 11.3786C12.8997 12.1936 12.2367 12.8523 11.4199 12.8523C10.603 12.8523 9.94 12.1936 9.94 11.3786C9.94 8.44603 11.4332 6.95763 14.3796 6.95763C17.326 6.95763 18.8191 8.44603 18.8191 11.3786C18.8191 13.5508 17.9875 14.9405 16.3493 15.5122C16.0858 15.6036 15.889 15.751 15.855 15.8173C15.855 16.6308 15.195 17.2821 14.3781 17.2821C13.5612 17.2821 12.9012 16.6145 12.9012 15.7996C12.9012 14.4365 13.8483 13.2605 15.3726 12.73C15.5664 12.6622 15.8609 12.5605 15.8609 11.3786C15.8609 10.0833 15.6804 9.90496 14.3811 9.90496C13.0817 9.90496 12.9012 10.0833 12.9012 11.3786H12.8997Z" fill="#0F172A"/>
</svg>
