<svg width="72" height="72" viewBox="0 0 72 72" fill="none" xmlns="http://www.w3.org/2000/svg">
    <rect width="72" height="72" rx="36" fill="#905EFB"/>
    <rect width="72" height="72" rx="36" fill="white" fill-opacity="0.48"/>
    <path d="M34.409 50.159C33.5303 51.0377 33.5303 52.4623 34.409 53.341C35.2877 54.2197 36.7123 54.2197 37.591 53.341L53.341 37.591C54.2197 36.7123 54.2197 35.2877 53.341 34.409L37.591 18.659C36.7123 17.7803 35.2877 17.7803 34.409 18.659C33.5303 19.5377 33.5303 20.9623 34.409 21.841L46.318 33.75L20.1094 33.75C18.9444 33.75 18 34.7574 18 36C18 37.2426 18.9444 38.25 20.1094 38.25L46.318 38.25L34.409 50.159Z" fill="black"/>
</svg>
