<svg width="14" height="14" viewBox="0 0 14 14" fill="none" xmlns="http://www.w3.org/2000/svg">
<path d="M6.90899 9.8724H7.98566V6.64239H6.90899V9.8724ZM7.44733 5.56572C7.59985 5.56572 7.7278 5.51404 7.83116 5.41068C7.93416 5.30767 7.98566 5.17991 7.98566 5.02738C7.98566 4.87485 7.93416 4.74691 7.83116 4.64355C7.7278 4.54054 7.59985 4.48904 7.44733 4.48904C7.2948 4.48904 7.16703 4.54054 7.06403 4.64355C6.96067 4.74691 6.90899 4.87485 6.90899 5.02738C6.90899 5.17991 6.96067 5.30767 7.06403 5.41068C7.16703 5.51404 7.2948 5.56572 7.44733 5.56572ZM7.44733 12.5641C6.70263 12.5641 6.00279 12.4227 5.34782 12.1399C4.69284 11.8574 4.1231 11.474 3.6386 10.9895C3.1541 10.505 2.77062 9.93521 2.48817 9.28023C2.20537 8.62526 2.06396 7.92542 2.06396 7.18072C2.06396 6.43603 2.20537 5.73619 2.48817 5.08121C2.77062 4.42624 3.1541 3.8565 3.6386 3.372C4.1231 2.88749 4.69284 2.50384 5.34782 2.22103C6.00279 1.93859 6.70263 1.79736 7.44733 1.79736C8.19202 1.79736 8.89186 1.93859 9.54684 2.22103C10.2018 2.50384 10.7716 2.88749 11.2561 3.372C11.7406 3.8565 12.124 4.42624 12.4065 5.08121C12.6893 5.73619 12.8307 6.43603 12.8307 7.18072C12.8307 7.92542 12.6893 8.62526 12.4065 9.28023C12.124 9.93521 11.7406 10.505 11.2561 10.9895C10.7716 11.474 10.2018 11.8574 9.54684 12.1399C8.89186 12.4227 8.19202 12.5641 7.44733 12.5641ZM7.44733 11.4874C8.64961 11.4874 9.66796 11.0702 10.5024 10.2358C11.3368 9.40136 11.754 8.38301 11.754 7.18072C11.754 5.97844 11.3368 4.96009 10.5024 4.12567C9.66796 3.29125 8.64961 2.87404 7.44733 2.87404C6.24504 2.87404 5.22669 3.29125 4.39227 4.12567C3.55785 4.96009 3.14064 5.97844 3.14064 7.18072C3.14064 8.38301 3.55785 9.40136 4.39227 10.2358C5.22669 11.0702 6.24504 11.4874 7.44733 11.4874Z" fill="#1976D2"/>
</svg>
