<svg width="104" height="12" viewBox="0 0 104 12" fill="none" xmlns="http://www.w3.org/2000/svg">
    <path d="M5.91275 0.17647C7.39254 0.17647 8.54064 0.5 9.35708 1.14706C10.1735 1.79412 10.5817 2.66471 10.5817 3.75882C10.5817 4.54706 10.3968 5.21765 10.0268 5.77059C9.66962 6.31176 9.14021 6.72353 8.43859 7.00588C8.33315 7.0473 8.22426 7.08555 8.11195 7.12063C7.49049 7.31472 6.7638 7.41176 5.93189 7.41176L5.62573 7.57059H5.0722H3.23384V11.8235H0V0.17647H5.91275ZM5.45351 5.41765C6.00205 5.41765 6.44216 5.31176 6.77383 5.1C7.10551 4.88824 7.27135 4.5 7.27135 3.93529C7.27135 3.35882 7.09913 2.97059 6.7547 2.77059C6.41027 2.57059 5.97654 2.47059 5.45351 2.47059H3.23384V5.41765H5.45351ZM7.38616 6.05294L8.11195 7.12063L11.3089 11.8235H7.67319L5.0722 7.57059L4.55416 6.72353L7.38616 6.05294Z" fill="#0F172A"/>
    <path d="M18.7696 0C20.0325 0 21.1169 0.241177 22.0226 0.72353C22.9283 1.19412 23.6236 1.87647 24.1083 2.77059C24.5931 3.66471 24.8354 4.74118 24.8354 6C24.8354 7.24706 24.5931 8.32353 24.1083 9.22941C23.6236 10.1235 22.9283 10.8118 22.0226 11.2941C21.1169 11.7647 20.0325 12 18.7696 12C17.5195 12 16.4351 11.7647 15.5166 11.2941C14.6109 10.8118 13.9093 10.1235 13.4118 9.22941C12.927 8.32353 12.6846 7.24706 12.6846 6C12.6846 4.74118 12.927 3.66471 13.4118 2.77059C13.9093 1.87647 14.6109 1.19412 15.5166 0.72353C16.4351 0.241177 17.5195 0 18.7696 0ZM18.7696 2.38235C18.1828 2.38235 17.6853 2.51765 17.2771 2.78824C16.8816 3.05882 16.5755 3.46471 16.3586 4.00588C16.1545 4.53529 16.0524 5.2 16.0524 6C16.0524 6.78824 16.1545 7.45294 16.3586 7.99412C16.5755 8.53529 16.8816 8.94118 17.2771 9.21176C17.6853 9.48235 18.1828 9.61765 18.7696 9.61765C19.3564 9.61765 19.8476 9.48235 20.243 9.21176C20.6385 8.94118 20.9383 8.53529 21.1424 7.99412C21.3592 7.45294 21.4677 6.78824 21.4677 6C21.4677 5.2 21.3592 4.53529 21.1424 4.00588C20.9383 3.46471 20.6385 3.05882 20.243 2.78824C19.8476 2.51765 19.3564 2.38235 18.7696 2.38235Z" fill="#0F172A"/>
    <path d="M38.28 0.17647V7.07647C38.28 8.71176 37.8143 9.94118 36.8831 10.7647C35.9519 11.5882 34.5741 12 32.7499 12C30.9385 12 29.5607 11.5882 28.6167 10.7647C27.6855 9.94118 27.2199 8.71176 27.2199 7.07647V0.17647H30.5302V7.12941C30.5302 7.96471 30.7152 8.58824 31.0852 9C31.4551 9.41176 32.01 9.61765 32.7499 9.61765C33.5026 9.61765 34.0639 9.41176 34.4338 9C34.8038 8.58824 34.9887 7.96471 34.9887 7.12941V0.17647H38.28Z" fill="#0F172A"/>
    <path d="M51.6026 0.17647V2.52353H47.6034V11.8235H44.3122V2.52353H40.2938V0.17647H51.6026Z" fill="#0F172A"/>
    <path d="M53.8534 11.8235V0.17647H63.4593V2.52353H57.1447V4.88824H62.1772V7.09412H57.1447V9.47647H63.708V11.8235H53.8534Z" fill="#0F172A"/>
    <path d="M71.9962 0.17647C73.476 0.17647 74.6241 0.5 75.4405 1.14706C76.257 1.79412 76.6652 2.66471 76.6652 3.75882C76.6652 4.54706 76.4802 5.21765 76.1103 5.77059C75.7531 6.31176 75.2237 6.72353 74.522 7.00588C73.8332 7.27647 72.9976 7.41176 72.0153 7.41176L71.7092 7.57059H69.3173V11.8235H66.0835V0.17647H71.9962ZM71.537 5.41765C72.0855 5.41765 72.5256 5.31176 72.8573 5.1C73.189 4.88824 73.3548 4.5 73.3548 3.93529C73.3548 3.35882 73.1826 2.97059 72.8382 2.77059C72.4937 2.57059 72.06 2.47059 71.537 2.47059H69.3173V5.41765H71.537ZM73.4696 6.05294L77.3923 11.8235H73.7566L70.6376 6.72353L73.4696 6.05294Z" fill="#0F172A"/>
    <path d="M85.3288 0.17647C86.8085 0.17647 87.9566 0.5 88.7731 1.14706C89.5895 1.79412 89.9977 2.66471 89.9977 3.75882C89.9977 4.54706 89.8127 5.21765 89.4428 5.77059C89.0856 6.31176 88.5562 6.72353 87.8546 7.00588C87.1657 7.27647 86.3302 7.41176 85.3479 7.41176L85.0417 7.57059H82.6498V11.8235H79.416V0.17647H85.3288ZM84.8695 5.41765C85.418 5.41765 85.8582 5.31176 86.1898 5.1C86.5215 4.88824 86.6873 4.5 86.6873 3.93529C86.6873 3.35882 86.5151 2.97059 86.1707 2.77059C85.8263 2.57059 85.3925 2.47059 84.8695 2.47059H82.6498V5.41765H84.8695ZM86.8022 6.05294L90.7249 11.8235H87.0892L83.9702 6.72353L86.8022 6.05294Z" fill="#0F172A"/>
    <path d="M104 11.8235H100.613L99.7711 9.19412H95.5997L94.7386 11.8235H91.4282L95.7528 0.17647H99.6946L104 11.8235ZM96.212 7.12941H99.1588L97.6854 2.41765L96.212 7.12941Z" fill="#0F172A"/>
</svg>
