<svg width="112" height="16" viewBox="0 0 112 16" fill="none" xmlns="http://www.w3.org/2000/svg">
  <path fill-rule="evenodd" clip-rule="evenodd" d="M47.8973 4.94255C47.6268 4.77252 47.3114 4.68316 46.9896 4.6854H46.1697V5.69969C46.1722 5.78359 46.148 5.86617 46.1004 5.93613C46.0529 6.00609 45.9844 6.06001 45.9042 6.0905C45.8241 6.121 45.7363 6.12658 45.6528 6.10649C45.5692 6.0864 45.4941 6.04161 45.4377 5.97826L42.7658 3.39255C42.7273 3.35654 42.6966 3.3133 42.6757 3.26542C42.6547 3.21755 42.6439 3.16603 42.6439 3.11397C42.6439 3.06192 42.6547 3.0104 42.6757 2.96253C42.6966 2.91465 42.7273 2.87141 42.7658 2.8354L45.467 0.256831C45.5212 0.18885 45.5965 0.139771 45.6816 0.116897C45.7667 0.0940222 45.8572 0.098575 45.9394 0.129877C46.0217 0.16118 46.0914 0.217559 46.1381 0.290626C46.1849 0.363693 46.2063 0.449544 46.199 0.535403V1.54969H47.0189C47.9174 1.53209 48.8045 1.7491 49.5883 2.17826C48.7018 2.87087 48.1013 3.85246 47.8973 4.94255ZM54.6612 0.256831C54.607 0.18885 54.5317 0.139771 54.4466 0.116897C54.3615 0.0940222 54.2711 0.098575 54.1888 0.129877C54.1065 0.16118 54.0368 0.217559 53.9901 0.290626C53.9433 0.363693 53.922 0.449544 53.9292 0.535403V1.54969H53.5193C52.8762 1.53044 52.2358 1.63805 51.6364 1.86607C51.037 2.09408 50.491 2.43782 50.0309 2.87667C49.5709 3.31553 49.2065 3.84048 48.9593 4.42007C48.7122 4.99966 48.5875 5.62196 48.5927 6.24969V14.8783C48.5927 14.9305 48.6034 14.9821 48.6241 15.0303C48.6448 15.0784 48.6751 15.122 48.7132 15.1586C48.7514 15.1952 48.7966 15.224 48.8463 15.2433C48.896 15.2626 48.9492 15.2721 49.0027 15.2711H51.4696C51.5771 15.2711 51.6802 15.23 51.7569 15.1565C51.8336 15.083 51.8776 14.9831 51.8795 14.8783V6.24969C51.8814 6.04178 51.9254 5.83628 52.009 5.645C52.0925 5.45373 52.2139 5.28043 52.3663 5.13508C52.5187 4.98973 52.6989 4.87518 52.8968 4.79801C53.0947 4.72084 53.3062 4.68257 53.5193 4.6854H53.9804V5.69969C53.9732 5.78555 53.9945 5.8714 54.0413 5.94446C54.0881 6.01753 54.1578 6.07391 54.24 6.10521C54.3223 6.13652 54.4127 6.14107 54.4978 6.11819C54.583 6.09532 54.6582 6.04624 54.7125 5.97826L57.421 3.39255C57.4952 3.31791 57.5367 3.21798 57.5367 3.11397C57.5367 3.00996 57.4952 2.91004 57.421 2.8354L54.6612 0.256831ZM25.3436 4.9854C25.9169 6.10875 26.1984 7.35237 26.1635 8.60683C26.2004 9.87144 25.9162 11.1253 25.3363 12.2568C24.8179 13.257 24.0046 14.0829 23.0011 14.6283C21.8937 15.2098 20.6493 15.4979 19.3922 15.464C18.1419 15.4943 16.9045 15.2115 15.798 14.6425C14.7955 14.0935 13.9809 13.2688 13.4555 12.2711C12.8831 11.1322 12.6017 9.87493 12.6356 8.60683C12.6032 7.34264 12.8871 6.0898 13.4628 4.95683C13.9891 3.95928 14.8069 3.13649 15.8126 2.59255C16.9108 2.01433 18.1448 1.72624 19.3922 1.75683C20.6493 1.72356 21.8934 2.01167 23.0011 2.59255C24.0089 3.14452 24.8246 3.97779 25.3436 4.9854ZM22.9206 8.60683C22.9433 7.82973 22.8013 7.05642 22.5033 6.3354C22.2511 5.73557 21.8265 5.21963 21.2808 4.84969C20.7236 4.50865 20.0792 4.32776 19.4215 4.32776C18.7638 4.32776 18.1193 4.50865 17.5621 4.84969C17.017 5.21711 16.5924 5.73062 16.3397 6.32826C16.0402 7.05154 15.8957 7.82699 15.9151 8.60683C15.8975 9.39416 16.0445 10.1767 16.347 10.9068C16.6016 11.5072 17.0255 12.0249 17.5695 12.3997C18.1295 12.7404 18.7762 12.921 19.4361 12.921C20.0961 12.921 20.7428 12.7404 21.3028 12.3997C21.8352 12.0305 22.251 11.5233 22.5033 10.9354C22.8087 10.2086 22.9557 9.42778 22.9352 8.64254L22.9206 8.60683ZM10.9886 14.564C11.0538 14.6716 11.082 14.7967 11.0691 14.9211C11.0505 15.0159 10.9955 15.1003 10.9153 15.1568C10.8072 15.2264 10.6785 15.2591 10.5493 15.2497H8.35326C8.22491 15.2535 8.09669 15.239 7.9726 15.2068C7.87577 15.1737 7.78632 15.1228 7.70907 15.0568C7.62717 14.9648 7.55597 14.8642 7.49679 14.7568L5.30071 10.5568H3.18515V14.614C3.19926 14.759 3.17136 14.905 3.10463 15.0354C3.05697 15.122 2.98275 15.192 2.89234 15.2354C2.77677 15.2832 2.65172 15.3052 2.52633 15.2997H0.659662C0.531952 15.3044 0.404687 15.2824 0.286328 15.2354C0.195267 15.1903 0.119137 15.1209 0.0667206 15.0354C0.0179205 14.9176 -0.00454077 14.7909 0.000838277 14.664V2.64254C-0.00476146 2.52019 0.0177485 2.39817 0.0667206 2.2854C0.114996 2.19669 0.192302 2.12629 0.286328 2.0854C0.402223 2.02956 0.53048 2.00256 0.659662 2.00683H5.85705C6.79957 1.98084 7.73651 2.15637 8.60215 2.52112C9.32499 2.82378 9.93373 3.33791 10.3444 3.99255C10.7657 4.70078 10.9761 5.50969 10.952 6.32826C10.9656 7.14428 10.734 7.94633 10.2858 8.6354C9.86592 9.28601 9.24206 9.78703 8.50698 10.064L10.9886 14.564ZM7.69443 6.32112C7.7048 6.05432 7.65587 5.7885 7.55099 5.5419C7.44611 5.2953 7.28777 5.07378 7.08685 4.89254C6.63631 4.52166 6.05765 4.3326 5.46907 4.36397H3.18515V8.32112H5.49835C6.08368 8.35408 6.65979 8.16755 7.10881 7.79969C7.30275 7.61431 7.45499 7.39155 7.55582 7.14559C7.65665 6.89962 7.70385 6.63587 7.69443 6.37112V6.32112ZM39.7865 2.0854C39.6706 2.02956 39.5423 2.00256 39.4131 2.00683H37.5465C37.4173 2.00256 37.289 2.02956 37.1731 2.0854C37.0791 2.12629 37.0018 2.19669 36.9535 2.2854C36.8979 2.39628 36.8727 2.51933 36.8803 2.64254V10.2925C36.8944 10.7857 36.7891 11.2752 36.5729 11.7211C36.3761 12.1065 36.0649 12.4251 35.6798 12.6354C35.2265 12.8589 34.7235 12.9693 34.2157 12.9568C33.7079 12.9708 33.2045 12.8603 32.7517 12.6354C32.3566 12.4253 32.0353 12.1043 31.8293 11.714C31.6131 11.268 31.5078 10.7786 31.5219 10.2854V2.64254C31.5273 2.5187 31.4995 2.39562 31.4414 2.2854C31.3979 2.19573 31.3224 2.12461 31.2291 2.0854C31.1132 2.02956 30.9849 2.00256 30.8557 2.00683H28.9598C28.8306 2.00256 28.7024 2.02956 28.5865 2.0854C28.4924 2.12629 28.4151 2.19669 28.3669 2.2854C28.315 2.39496 28.2899 2.51478 28.2936 2.6354V10.5783C28.2683 11.4806 28.5185 12.3699 29.0125 13.133C29.5066 13.8962 30.2221 14.4987 31.068 14.864C32.0461 15.289 33.1088 15.4964 34.1791 15.4711C35.2553 15.5 36.3241 15.2899 37.3049 14.8568C38.1526 14.4939 38.8698 13.8919 39.3642 13.1282C39.8586 12.3645 40.1076 11.474 40.0793 10.5711V2.6354C40.0834 2.51395 40.0557 2.39349 39.9987 2.2854C39.9553 2.19573 39.8798 2.12461 39.7865 2.0854ZM68.9943 2.0854C68.8784 2.02956 68.7502 2.00256 68.621 2.00683H60.5687C60.4395 2.00256 60.3112 2.02956 60.1953 2.0854C60.1046 2.12843 60.0303 2.19847 59.9831 2.2854C59.934 2.39562 59.9114 2.51535 59.9172 2.6354V14.6354C59.9118 14.7624 59.9343 14.889 59.9831 15.0068C60.0355 15.0924 60.1116 15.1617 60.2027 15.2068C60.321 15.2539 60.4483 15.2758 60.576 15.2711H68.621C68.7487 15.2758 68.8759 15.2539 68.9943 15.2068C69.0806 15.171 69.1544 15.1114 69.2066 15.0354C69.2619 14.9193 69.2871 14.7918 69.2798 14.664V13.4283C69.2861 13.3028 69.261 13.1778 69.2066 13.064C69.1611 12.9758 69.0863 12.9052 68.9943 12.864C68.8777 12.8109 68.7495 12.7863 68.621 12.7925H63.1308V9.75683H68.255C68.3828 9.76313 68.5104 9.74115 68.6283 9.69255C68.7187 9.64911 68.7929 9.57918 68.8406 9.49255C68.8984 9.37712 68.9261 9.24951 68.9211 9.12112V8.04969C68.9265 7.92584 68.8987 7.80276 68.8406 7.69254C68.798 7.60057 68.7225 7.52692 68.6283 7.4854C68.5147 7.43113 68.3886 7.40652 68.2623 7.41397H63.1381V4.49255H68.621C68.7487 4.49721 68.8759 4.4753 68.9943 4.42826C69.0873 4.38154 69.1619 4.30623 69.2066 4.21397C69.2622 4.1031 69.2874 3.98005 69.2798 3.85683V2.64254C69.2874 2.51933 69.2622 2.39628 69.2066 2.2854C69.1632 2.19573 69.0877 2.12461 68.9943 2.0854ZM83.159 14.5854C83.2242 14.693 83.2524 14.8182 83.2395 14.9425C83.221 15.0374 83.166 15.1217 83.0858 15.1783C82.9777 15.2479 82.849 15.2805 82.7198 15.2711H80.5237C80.3954 15.2749 80.2671 15.2605 80.1431 15.2283C80.0462 15.1951 79.9568 15.1442 79.8795 15.0783C79.7976 14.9862 79.7264 14.8856 79.6672 14.7783L77.4712 10.5783H75.3556V14.6354C75.3606 14.7638 75.3329 14.8914 75.2751 15.0068C75.2274 15.0935 75.1532 15.1634 75.0628 15.2068C74.9472 15.2546 74.8222 15.2766 74.6968 15.2711H72.8301C72.7024 15.2758 72.5751 15.2539 72.4568 15.2068C72.3657 15.1617 72.2896 15.0924 72.2372 15.0068C72.1884 14.889 72.1659 14.7624 72.1713 14.6354V2.64254C72.1657 2.52019 72.1882 2.39817 72.2372 2.2854C72.2855 2.19669 72.3628 2.12629 72.4568 2.0854C72.5727 2.02956 72.7009 2.00256 72.8301 2.00683H78.0275C78.97 1.98084 79.907 2.15637 80.7726 2.52112C81.5009 2.82129 82.115 3.33566 82.5295 3.99255C82.9508 4.70078 83.1612 5.50969 83.137 6.32826C83.1507 7.14428 82.9191 7.94633 82.4709 8.6354C82.051 9.28601 81.4272 9.78703 80.6921 10.064L83.159 14.5854ZM79.8649 6.32112C79.8753 6.05432 79.8263 5.7885 79.7214 5.5419C79.6166 5.2953 79.4582 5.07378 79.2573 4.89254C78.8068 4.52166 78.2281 4.3326 77.6395 4.36397H75.3556V8.32112H77.6688C78.2521 8.35517 78.8263 8.1684 79.2719 7.79969C79.4683 7.61575 79.6226 7.3934 79.7248 7.14721C79.827 6.90103 79.8747 6.63655 79.8649 6.37112V6.32112ZM96.7601 14.5854C96.8253 14.693 96.8535 14.8182 96.8406 14.9425C96.822 15.0374 96.767 15.1217 96.6869 15.1783C96.5783 15.2469 96.4499 15.2795 96.3208 15.2711H94.1248C93.9964 15.2749 93.8682 15.2605 93.7441 15.2283C93.6465 15.1969 93.5566 15.1458 93.4806 15.0783C93.3963 14.988 93.3249 14.8871 93.2683 14.7783L91.0722 10.5783H88.9786V14.6354C88.9836 14.7638 88.9559 14.8914 88.8981 15.0068C88.8504 15.0935 88.7762 15.1634 88.6858 15.2068C88.5702 15.2546 88.4452 15.2766 88.3198 15.2711H86.4531C86.3254 15.2758 86.1982 15.2539 86.0798 15.2068C85.9887 15.1617 85.9126 15.0924 85.8602 15.0068C85.8114 14.889 85.7889 14.7624 85.7943 14.6354V2.64254C85.7887 2.52019 85.8112 2.39817 85.8602 2.2854C85.9085 2.19669 85.9858 2.12629 86.0798 2.0854C86.1957 2.02956 86.3239 2.00256 86.4531 2.00683H91.6505C92.593 1.98084 93.53 2.15637 94.3956 2.52112C95.1185 2.82378 95.7272 3.33791 96.1378 3.99255C96.5592 4.70078 96.7696 5.50969 96.7454 6.32826C96.759 7.14428 96.5275 7.94633 96.0793 8.6354C95.6594 9.28601 95.0355 9.78703 94.3005 10.064L96.7601 14.5854ZM93.4586 6.32112C93.4704 6.0548 93.4228 5.78917 93.3192 5.54253C93.2156 5.2959 93.0583 5.07414 92.8584 4.89254C92.4078 4.52166 91.8292 4.3326 91.2406 4.36397H88.9567V8.32112H91.2699C91.8531 8.35517 92.4273 8.1684 92.873 7.79969C93.068 7.61512 93.221 7.39249 93.3219 7.14633C93.4228 6.90018 93.4694 6.63603 93.4586 6.37112V6.32112ZM111.649 14.9568C111.623 15.0539 111.56 15.1378 111.474 15.1925C111.361 15.2493 111.235 15.2764 111.108 15.2711H109.124C108.992 15.2784 108.86 15.2589 108.736 15.214C108.641 15.1788 108.558 15.1196 108.494 15.0425C108.426 14.9414 108.374 14.8306 108.341 14.714L107.55 12.1783H102.807L102.016 14.6997C101.981 14.8184 101.924 14.9297 101.848 15.0283C101.792 15.1095 101.709 15.1699 101.613 15.1997C101.492 15.2435 101.362 15.2629 101.233 15.2568H99.2489C99.1174 15.2617 98.9866 15.2347 98.8683 15.1783C98.7861 15.1209 98.7266 15.0377 98.6999 14.9425C98.6626 14.8238 98.6626 14.697 98.6999 14.5783L103.034 2.54969C103.067 2.42827 103.124 2.31428 103.202 2.21397C103.266 2.13649 103.353 2.07934 103.451 2.04969C103.573 2.00948 103.702 1.99015 103.831 1.99255H106.452C106.579 1.98934 106.706 2.0087 106.825 2.04969C106.924 2.07769 107.011 2.13515 107.074 2.21397C107.152 2.31548 107.211 2.42896 107.25 2.54969L111.576 14.5783C111.636 14.6955 111.661 14.8265 111.649 14.9568ZM106.847 9.95683L105.222 4.72112H105.164L103.517 9.95683H106.847Z" fill="#0F172A" />
</svg>