<svg width="36" height="36" viewBox="0 0 36 36" fill="none" xmlns="http://www.w3.org/2000/svg">
  <path d="M16.6393 5.1837L18.2193 6.05117C19.4934 6.83763 18.9598 8.26623 18.2193 8.64031L16.6408 9.50778C16.1841 9.75815 15.8101 10.1337 15.5604 10.5932L14.6972 12.1779C14.0158 13.3694 12.5038 13.0086 12.0915 12.1779L11.2283 10.5932C10.977 10.1337 10.6046 9.75815 10.1479 9.50778L8.56786 8.63884C7.59533 8.16166 7.52882 6.58726 8.56786 6.05117L10.1464 5.1837C10.6031 4.93333 10.977 4.55777 11.2268 4.09826L12.09 2.51355C12.6088 1.56213 14.1769 1.56213 14.6957 2.51355L15.5589 4.09826C15.8101 4.55777 16.1826 4.93333 16.6393 5.1837Z" fill="#0F172A" />
  <path d="M25.5656 9.62414L24.3477 8.9555C23.1224 8.30453 23.5673 6.70656 24.3477 6.36782L25.5671 5.69918C25.8627 5.53717 26.1051 5.29416 26.2662 4.99666L26.9342 3.77131C27.453 2.81989 29.0212 2.81989 29.54 3.77131L30.2066 4.99519C30.3691 5.29416 30.6115 5.53717 30.9071 5.69918L32.125 6.36782C33.2779 6.94515 32.9631 8.58436 32.125 8.9555L30.9057 9.62414C30.6101 9.78614 30.3677 10.0306 30.2051 10.3281L29.5385 11.552C28.7537 12.8584 27.2535 12.2781 26.9328 11.552L26.2662 10.3281C26.1036 10.0306 25.8627 9.78762 25.5656 9.62414Z" fill="#0F172A" />
  <path fill-rule="evenodd" clip-rule="evenodd" d="M9.90621 18.9733C17.5949 11.3178 21.417 9.38997 24.0139 11.8613C26.4866 14.4828 24.4987 18.4446 16.9859 26.0515C11.3207 31.6908 6.04711 36.3389 2.86789 33.1709C0.330134 30.4934 2.18209 26.7953 9.89734 18.9822L9.90621 18.9733ZM12.005 21.0588C4.38877 28.7732 4.5484 30.6437 4.97111 31.0899L4.96963 31.0914C5.35983 31.461 7.20883 31.6098 14.8812 23.9705C15.5848 23.2577 16.2203 22.5949 16.7953 21.9793C16.5854 20.5153 15.437 19.3548 13.9855 19.1383C13.3722 19.7156 12.7144 20.3533 12.005 21.0588ZM16.479 16.8997C17.5579 17.4844 18.4492 18.3739 19.0345 19.4535V19.452C22.5935 15.1765 22.091 14.1323 21.9092 13.9379C21.6875 13.7317 20.5997 13.4121 16.479 16.8997Z" fill="#0F172A" />
  <path d="M33.4325 21.209L31.8525 20.3416C31.3958 20.0912 31.0233 19.7156 30.7721 19.2561L29.9089 17.6714C29.3901 16.72 27.822 16.72 27.3032 17.6714L26.44 19.2561C26.1902 19.7156 25.8163 20.0912 25.3596 20.3416L23.7811 21.209C22.742 21.7451 22.8085 23.3195 23.7811 23.7967L25.3611 24.6657C25.8178 24.916 26.1902 25.2916 26.4415 25.7511L27.3046 27.3358C27.717 28.1665 29.229 28.5273 29.9104 27.3358L30.7736 25.7511C31.0233 25.2916 31.3973 24.916 31.854 24.6657L33.4325 23.7982C34.173 23.4241 34.7066 21.997 33.4325 21.2105V21.209Z" fill="#0F172A" />
</svg>