<svg width="36" height="36" viewBox="0 0 36 36" fill="none" xmlns="http://www.w3.org/2000/svg">
  <path d="M18.0111 1.80005H17.9919C7.58607 1.86485 1.98826 7.45827 1.80078 18.0266C1.99417 28.5477 7.59198 34.1397 18.0008 34.2001H32.7246C33.5409 34.2001 34.2008 33.5403 34.2008 32.7273V17.975C34.0207 7.61143 28.2708 1.86632 18.0111 1.80005ZM31.2484 31.2546H18.0096C9.1302 31.203 4.91855 26.9822 4.75469 18.0266C4.91265 9.14896 9.24534 4.80294 18.0023 4.7455C26.6411 4.80589 31.0978 9.27267 31.2498 18L31.2484 31.2546Z" fill="#020617" />
  <path d="M24.5964 12.2249C23.5764 11.2784 22.2099 10.7684 20.9049 10.8224C19.8114 10.8674 18.7944 11.2904 17.9994 12.0224C17.2059 11.2889 16.1889 10.8659 15.0939 10.8224C13.8084 10.7669 12.4239 11.2784 11.4024 12.2249C10.4694 13.0904 9.48239 14.7329 9.51239 16.749C9.54539 18.9614 10.7334 21.1004 13.0434 23.1089C14.6244 24.4844 16.2909 25.1804 18.0009 25.1819C19.7079 25.1819 21.3744 24.4844 22.9554 23.1089C25.2639 21.1004 26.4519 18.9599 26.4864 16.749C26.5179 14.7329 25.5309 13.0919 24.5964 12.2264V12.2249ZM20.9874 20.8454C18.9474 22.6199 17.0514 22.6139 15.0144 20.8454C13.3989 19.4399 12.5349 18.0074 12.5154 16.7024C12.4974 15.5999 13.0749 14.7329 13.4439 14.4254C14.6499 13.4204 15.7014 13.9289 16.0644 14.3264L16.8954 15.2324C17.4639 15.8534 18.5394 15.8534 19.1079 15.2324L19.9389 14.3264C20.3019 13.9304 21.3099 13.3844 22.5594 14.4254C22.9119 14.7524 23.5059 15.5999 23.4879 16.7024C23.4684 18.0074 22.6029 19.4399 20.9874 20.8454Z" fill="#020617" />
</svg>