
<svg width="54" height="17" viewBox="0 0 54 17" fill="none" xmlns="http://www.w3.org/2000/svg">
  <g clip-path="url(#clip0_5802_11744)">
    <path fill-rule="evenodd" clip-rule="evenodd" d="M33.3867 13.1019C30.2979 15.4841 25.805 16.7532 21.9299 16.7532C16.501 16.7532 11.6337 14.6639 7.92702 11.1883C7.64622 10.915 7.8896 10.5439 8.24525 10.7587C12.2327 13.18 17.1561 14.6249 22.2481 14.6249C25.6739 14.6249 29.4554 13.8829 32.9375 12.3403C33.4616 12.1255 33.8922 12.7113 33.3867 13.1019Z" fill="#94A3B8" />
    <path fill-rule="evenodd" clip-rule="evenodd" d="M34.6756 11.5595C34.2824 11.0323 32.0547 11.3056 31.0625 11.4423C30.763 11.4814 30.7068 11.208 30.9876 11.0128C32.766 9.70448 35.6677 10.095 36.0047 10.5246C36.3416 10.9542 35.9111 14.0002 34.245 15.4451C33.9829 15.66 33.7395 15.5428 33.8518 15.2499C34.2262 14.2736 35.0687 12.1062 34.6756 11.5595Z" fill="#94A3B8" />
    <path fill-rule="evenodd" clip-rule="evenodd" d="M31.1176 1.83544V0.566255C31.1176 0.370997 31.2486 0.25384 31.4171 0.25384L36.846 0.253841C37.0145 0.253841 37.1643 0.390524 37.1643 0.56626L37.1642 1.64018C37.1642 1.81592 37.0145 2.05023 36.7524 2.44075L33.9444 6.61931C34.9927 6.59979 36.0972 6.75599 37.0332 7.30271C37.2391 7.41987 37.2953 7.61513 37.314 7.79086V9.13813C37.314 9.33339 37.1268 9.54817 36.9209 9.43102C35.2548 8.51331 33.027 8.41568 31.1924 9.45054C31.0053 9.54817 30.7993 9.35291 30.7993 9.15766V7.86896C30.7993 7.6737 30.7993 7.32224 31.0053 7.00983L34.2626 2.14786H31.4358C31.2673 2.14786 31.1176 2.01118 31.1176 1.83544ZM11.3302 9.70438H9.68276C9.533 9.68485 9.40196 9.5677 9.38324 9.41149V0.58578C9.38324 0.410046 9.533 0.273363 9.70152 0.273363H11.2366C11.405 0.273363 11.5174 0.410045 11.5361 0.566255V1.71828H11.5735C11.9667 0.605301 12.7342 0.0781041 13.7451 0.0781041C14.7747 0.0781046 15.4299 0.605306 15.8792 1.71828C16.2723 0.605306 17.1896 0.078105 18.1631 0.078105C18.8558 0.078105 19.6046 0.370995 20.0726 1.0544C20.5968 1.79639 20.4844 2.87032 20.4844 3.82709V9.41149C20.4844 9.58722 20.3347 9.7239 20.1662 9.7239H18.5375C18.369 9.70438 18.238 9.5677 18.238 9.41149V4.72528C18.238 4.35428 18.2754 3.41704 18.2006 3.06557C18.0695 2.47979 17.7138 2.30406 17.2271 2.30406C16.8339 2.30406 16.4034 2.57743 16.2349 3.02652C16.0664 3.47562 16.0852 4.2176 16.0852 4.72528V9.41149C16.0852 9.58722 15.9354 9.7239 15.7669 9.7239H14.1195C13.951 9.70438 13.82 9.5677 13.82 9.41149V4.72528C13.82 3.74898 13.9698 2.28453 12.8091 2.28453C11.6297 2.28453 11.6671 3.6904 11.6671 4.72528V9.41149C11.6484 9.5677 11.5174 9.70438 11.3302 9.70438ZM41.8444 0.0781094C44.2967 0.0781099 45.6259 2.26502 45.6259 5.05721C45.6259 7.7518 44.1657 9.89963 41.8444 9.89963C39.4482 9.89963 38.1377 7.71275 38.1377 4.9791C38.119 2.22596 39.4482 0.0781089 41.8444 0.0781094ZM41.8444 1.89402C40.6275 1.89402 40.5526 3.63184 40.5526 4.70576C40.5526 5.77971 40.5339 8.08374 41.8256 8.08374C43.0986 8.08374 43.1735 6.2288 43.1735 5.09626C43.1735 4.35429 43.136 3.4561 42.9301 2.75317C42.7429 2.12834 42.3685 1.89402 41.8444 1.89402ZM48.7896 9.70438H47.1422C46.9737 9.68485 46.8429 9.54822 46.8429 9.39196V0.546734C46.8615 0.390524 46.9923 0.253843 47.1608 0.253843H48.6961C48.846 0.253843 48.9582 0.371002 48.9954 0.507682V1.85497H49.0331C49.501 0.644363 50.1373 0.0781109 51.2792 0.0781114C52.0096 0.0781114 52.7396 0.351472 53.2074 1.11298C53.638 1.81592 53.638 3.007 53.638 3.86614V9.43102C53.6194 9.58722 53.4886 9.70438 53.3201 9.70438H51.6726C51.5227 9.68485 51.3919 9.5677 51.3728 9.43102V4.62765C51.3728 3.65136 51.4855 2.24549 50.3435 2.24549C49.9502 2.24549 49.5759 2.51886 49.3888 2.94843C49.1639 3.49516 49.1267 4.02235 49.1267 4.62765V9.39196C49.1081 9.56775 48.9582 9.70438 48.7896 9.70438ZM26.7932 5.48677C26.7932 6.1507 26.8119 6.71694 26.4937 7.32224C26.2316 7.81038 25.8197 8.10327 25.3517 8.10327C24.7152 8.10327 24.3408 7.5956 24.3408 6.85362C24.3408 5.38915 25.5951 5.11579 26.7932 5.11579V5.48677ZM28.4593 9.68485C28.347 9.78248 28.1972 9.80201 28.0662 9.7239C27.5233 9.25529 27.411 9.02098 27.1114 8.57189C26.2129 9.52865 25.5576 9.82153 24.397 9.82153C23.0117 9.82153 21.9259 8.92335 21.9259 7.14651C21.9259 5.74061 22.656 4.80338 23.6856 4.33476C24.5842 3.92472 25.8384 3.84662 26.7932 3.72946V3.51467C26.7932 3.10463 26.8306 2.61648 26.5873 2.26502C26.3813 1.9526 26.0069 1.81592 25.67 1.81592C25.0335 1.81592 24.4719 2.14786 24.3408 2.85079C24.3034 3.007 24.2098 3.1632 24.06 3.1632L22.4688 2.98747C22.3377 2.94842 22.188 2.85079 22.2254 2.636C22.5998 0.605306 24.3408 3.66569e-06 25.9133 3.95293e-06C26.7183 4.09996e-06 27.7667 0.214788 28.4032 0.859145C29.2081 1.64018 29.1332 2.69459 29.1332 3.82709V6.50216C29.1332 7.30271 29.4515 7.65418 29.751 8.10327C29.8633 8.25947 29.8821 8.45473 29.751 8.55236C29.3953 8.84525 28.7962 9.39196 28.4593 9.68485ZM5.17115 5.48677C5.17115 6.1507 5.18991 6.71694 4.87164 7.32224C4.60956 7.81038 4.19771 8.10327 3.7297 8.10327C3.09321 8.10327 2.7188 7.5956 2.7188 6.85362C2.71881 5.38915 3.97307 5.11579 5.17115 5.11579V5.48677ZM6.81857 9.68485C6.70624 9.78248 6.55648 9.80201 6.42544 9.7239C5.88255 9.25529 5.77022 9.02098 5.47071 8.57189C4.57212 9.52865 3.91691 9.82153 2.75624 9.82153C1.37094 9.82153 0.285156 8.92335 0.285156 7.14651C0.285157 5.74061 1.01525 4.80338 2.04487 4.33476C2.94345 3.92471 4.19771 3.84661 5.15244 3.72945V3.51467C5.15244 3.10463 5.18991 2.61648 4.94654 2.26501C4.74059 1.9526 4.3662 1.81591 4.02923 1.81591C3.39273 1.81591 2.83113 2.14786 2.70008 2.85079C2.66264 3.007 2.56904 3.1632 2.41928 3.1632L0.828047 2.98747C0.697004 2.94842 0.547242 2.85079 0.584684 2.636C0.95909 0.605306 2.70008 -2.87239e-07 4.27259 0C5.07758 1.47036e-07 6.12593 0.214785 6.76238 0.85914C7.5674 1.64018 7.4925 2.69458 7.4925 3.82709V6.50216C7.4925 7.30271 7.81073 7.65418 8.11029 8.10327C8.22257 8.25947 8.24133 8.45473 8.11029 8.55236C7.75458 8.84525 7.15551 9.39196 6.81857 9.68485Z" fill="#94A3B8" />
  </g>
  <defs>
    <clipPath id="clip0_5802_11744">
      <rect width="54" height="17" fill="white" />
    </clipPath>
  </defs>
</svg>