<svg width="80" height="11" viewBox="0 0 80 11" fill="none" xmlns="http://www.w3.org/2000/svg">
  <g clip-path="url(#clip0_5802_11748)">
    <path d="M0.390625 9.9137H10.0036L9.44465 10.6722H0.390625V9.9137Z" fill="#94A3B8" />
    <path d="M79.6122 10.6723H67.8477L68.4343 9.91382H79.6122V10.6723Z" fill="#94A3B8" />
    <path d="M0.390625 8.50562H11.0934L10.5066 9.26412H0.390625V8.50562Z" fill="#94A3B8" />
    <path d="M0.390625 7.09729H12.1833L11.5964 7.85574H0.390625V7.09729Z" fill="#94A3B8" />
    <path d="M79.6166 9.26412H68.9414L69.5286 8.50562H79.6166V9.26412Z" fill="#94A3B8" />
    <path d="M70.6146 7.09729H79.6126V7.85574H70.0273L70.6146 7.09729Z" fill="#94A3B8" />
    <path d="M10.7578 10.6735L15.8438 4.09314C15.8438 4.09314 21.4885 4.09314 22.1592 4.09314C22.8578 4.09314 22.8578 4.33686 22.4946 4.79721C22.1592 5.23048 21.5724 6.01581 21.2091 6.47616C21.0414 6.71986 20.7061 7.12604 21.768 7.12604C22.9137 7.12604 30.2073 7.12604 30.2073 7.12604C29.5087 8.04674 27.2172 10.7005 23.1373 10.7005C19.8399 10.6735 10.7578 10.6735 10.7578 10.6735Z" fill="#94A3B8" />
    <path d="M39.8759 7.09729L37.1093 10.6718H29.8438L32.6103 7.09729H39.8759Z" fill="#94A3B8" />
    <path d="M50.3837 7.09729L47.6171 10.6718H40.3516L43.1181 7.09729H50.3837Z" fill="#94A3B8" />
    <path d="M52.7637 7.09729C52.7637 7.09729 52.2327 7.80134 51.9812 8.12628C51.059 9.29074 51.8694 10.6718 54.8595 10.6718C58.2968 10.6718 66.5402 10.6718 66.5402 10.6718L69.3067 7.09729H52.7637Z" fill="#94A3B8" />
    <path d="M14.336 0L11.7931 3.27665C11.7931 3.27665 24.8991 3.27665 25.5977 3.27665C26.2963 3.27665 26.2963 3.52036 25.933 3.98072C25.5977 4.41399 25.0108 5.1993 24.6476 5.65967C24.4799 5.87631 24.1446 6.30955 25.2065 6.30955C26.3522 6.30955 30.8512 6.30955 30.8512 6.30955C30.8512 6.30955 31.7734 5.11806 32.528 4.14319C33.5619 2.81629 32.6118 0.0270797 28.9231 0.0270797C25.5977 0 14.336 0 14.336 0Z" fill="#94A3B8" />
    <path d="M51.0234 6.28249H33.2227L38.085 0H45.3506L42.5841 3.6016H45.8257L48.6202 0H55.8857L51.0234 6.28249Z" fill="#94A3B8" />
    <path d="M65.9461 0L61.0837 6.28249H53.3711L58.2332 0H65.9461Z" fill="#94A3B8" />
  </g>
  <defs>
    <clipPath id="clip0_5802_11748">
      <rect width="80" height="11" fill="white" />
    </clipPath>
  </defs>
</svg>