<svg width="24" height="29" viewBox="0 0 24 29" fill="none" xmlns="http://www.w3.org/2000/svg">
  <g clip-path="url(#clip0_5802_11739)">
    <path fill-rule="evenodd" clip-rule="evenodd" d="M0.816406 8.7659L0.918271 20.5418L3.51589 23.81L11.309 28.012L20.8847 23.2393L22.8711 18.4148L22.6674 2.79981L15.4347 2.5923L7.89652 3.83733L1.02044 7.88366L0.816406 8.7659Z" fill="#94A3B8" />
    <path d="M11.9764 0.255971C7.43708 0.255971 3.4775 1.15106 0.207031 2.91622V17.0281C0.207031 19.9975 1.30247 22.4805 3.37437 24.2104C5.29811 25.8176 11.2476 28.4662 11.9766 28.7879C12.668 28.4815 18.688 25.7919 20.5812 24.2104C22.652 22.4815 23.7477 19.9977 23.7477 17.0281V2.91622C20.4767 1.15083 16.5172 0.255737 11.976 0.255737L11.9764 0.255971ZM18.6979 2.98842C20.0516 3.00644 21.3808 3.09161 22.6656 3.21323V17.028C22.6656 19.6828 21.7198 21.8272 19.8949 23.3582C18.2645 24.7257 13.3484 26.969 11.9766 27.5849C10.5865 26.9607 5.65805 24.689 4.05704 23.3588C2.24291 21.854 1.288 19.6586 1.288 17.0285V8.95633C6.50128 4.08689 12.8318 2.91059 18.6974 2.98873L18.6979 2.98842ZM12.2833 9.42111C11.1664 9.42111 10.2652 9.67539 9.5233 10.1632V23.7552H11.5718V19.364C11.7762 19.4255 12.0729 19.4828 12.4933 19.4828C14.7656 19.4828 16.0716 17.3966 16.0716 14.3504C16.0716 11.3103 14.7268 9.42111 12.2833 9.42111ZM19.2827 9.42111C17.9355 9.46088 16.5267 10.4548 16.5353 12.1398C16.5387 13.2493 16.8407 14.0791 18.529 15.088C19.43 15.6266 19.793 15.9816 19.8085 16.6361C19.8257 17.3637 19.3321 17.8024 18.581 17.7994C17.9275 17.7942 17.1463 17.4248 16.6232 16.9504V18.8705C17.2646 19.26 18.065 19.5175 18.8735 19.5175C20.8972 19.5175 21.8008 18.0615 21.8399 16.7274C21.8784 15.5114 21.5484 14.5914 19.8372 13.5673C19.0734 13.1111 18.4703 12.8112 18.4904 12.0521C18.5105 11.311 19.1145 11.0507 19.6945 11.056C20.41 11.0624 21.1022 11.466 21.5294 11.9123V10.0991C21.1694 9.81665 20.4071 9.38602 19.2827 9.42111ZM2.33406 9.63221V16.1884C2.33406 18.3987 3.36059 19.5176 5.38654 19.5176C6.64015 19.5176 7.69011 19.2221 8.47224 18.6805V9.63226H6.42828V17.4935C6.20547 17.649 5.87498 17.7484 5.45922 17.7484C4.52089 17.7484 4.38068 16.872 4.38068 16.2808V9.63236L2.33406 9.63221ZM12.2971 11.1008C13.4852 11.1008 13.9777 12.0669 13.9777 14.4035C13.9777 16.6834 13.4144 17.7849 12.2361 17.7849C11.9587 17.7849 11.7176 17.7149 11.5712 17.6588V11.2518C11.7371 11.1676 12.0191 11.1008 12.2971 11.1008Z" fill="#CBD5E1" />
  </g>
  <defs>
    <clipPath id="clip0_5802_11739">
      <rect width="24" height="29" fill="white" />
    </clipPath>
  </defs>
</svg>